<mxfile host="app.diagrams.net" modified="2024-10-30T05:40:16.748Z" agent="Mozilla/5.0 (Windows NT 10.0; Win64; x64) AppleWebKit/537.36 (KHTML, like Gecko) Chrome/130.0.0.0 Safari/537.36" etag="iFwwzA1j3t85yRtkspyf" version="24.4.9" type="github">
  <diagram name="페이지-1" id="1v9ftmxMLewAZDZeclnK">
    <mxGraphModel dx="2060" dy="1054" grid="1" gridSize="10" guides="1" tooltips="1" connect="1" arrows="1" fold="1" page="1" pageScale="1" pageWidth="827" pageHeight="1169" math="0" shadow="0">
      <root>
        <mxCell id="0" />
        <mxCell id="1" parent="0" />
        <mxCell id="cY8O7p1p9LEQL0qUz4Aw-24" value="" style="rounded=0;whiteSpace=wrap;html=1;" vertex="1" parent="1">
          <mxGeometry x="730" y="150" width="380" height="425" as="geometry" />
        </mxCell>
        <mxCell id="cY8O7p1p9LEQL0qUz4Aw-22" value="" style="rounded=0;whiteSpace=wrap;html=1;" vertex="1" parent="1">
          <mxGeometry x="65" y="155" width="380" height="425" as="geometry" />
        </mxCell>
        <mxCell id="cY8O7p1p9LEQL0qUz4Aw-3" value="" style="rounded=0;whiteSpace=wrap;html=1;" vertex="1" parent="1">
          <mxGeometry x="470" y="150" width="240" height="350" as="geometry" />
        </mxCell>
        <mxCell id="cY8O7p1p9LEQL0qUz4Aw-4" value="Router Handler-app/api" style="text;html=1;align=center;verticalAlign=middle;whiteSpace=wrap;rounded=0;" vertex="1" parent="1">
          <mxGeometry x="525" y="160" width="130" height="30" as="geometry" />
        </mxCell>
        <mxCell id="cY8O7p1p9LEQL0qUz4Aw-5" value="FE-app" style="text;html=1;align=center;verticalAlign=middle;whiteSpace=wrap;rounded=0;" vertex="1" parent="1">
          <mxGeometry x="190" y="160" width="130" height="30" as="geometry" />
        </mxCell>
        <mxCell id="cY8O7p1p9LEQL0qUz4Aw-6" value="BE-core" style="text;html=1;align=center;verticalAlign=middle;whiteSpace=wrap;rounded=0;" vertex="1" parent="1">
          <mxGeometry x="855" y="160" width="130" height="30" as="geometry" />
        </mxCell>
        <mxCell id="cY8O7p1p9LEQL0qUz4Aw-7" value="component" style="rounded=0;whiteSpace=wrap;html=1;" vertex="1" parent="1">
          <mxGeometry x="120" y="200" width="280" height="60" as="geometry" />
        </mxCell>
        <mxCell id="cY8O7p1p9LEQL0qUz4Aw-8" value="repository" style="rounded=0;whiteSpace=wrap;html=1;" vertex="1" parent="1">
          <mxGeometry x="120" y="410" width="280" height="60" as="geometry" />
        </mxCell>
        <mxCell id="cY8O7p1p9LEQL0qUz4Aw-9" value="interface" style="rounded=0;whiteSpace=wrap;html=1;" vertex="1" parent="1">
          <mxGeometry x="120" y="490" width="280" height="60" as="geometry" />
        </mxCell>
        <mxCell id="cY8O7p1p9LEQL0qUz4Aw-10" value="service" style="rounded=0;whiteSpace=wrap;html=1;" vertex="1" parent="1">
          <mxGeometry x="120" y="340" width="280" height="60" as="geometry" />
        </mxCell>
        <mxCell id="cY8O7p1p9LEQL0qUz4Aw-11" value="repository" style="rounded=0;whiteSpace=wrap;html=1;" vertex="1" parent="1">
          <mxGeometry x="790" y="390" width="280" height="60" as="geometry" />
        </mxCell>
        <mxCell id="cY8O7p1p9LEQL0qUz4Aw-12" value="interface" style="rounded=0;whiteSpace=wrap;html=1;" vertex="1" parent="1">
          <mxGeometry x="790" y="470" width="280" height="60" as="geometry" />
        </mxCell>
        <mxCell id="cY8O7p1p9LEQL0qUz4Aw-13" value="service" style="rounded=0;whiteSpace=wrap;html=1;" vertex="1" parent="1">
          <mxGeometry x="790" y="310" width="280" height="60" as="geometry" />
        </mxCell>
        <mxCell id="cY8O7p1p9LEQL0qUz4Aw-20" value="controller" style="rounded=0;whiteSpace=wrap;html=1;" vertex="1" parent="1">
          <mxGeometry x="790" y="230" width="280" height="60" as="geometry" />
        </mxCell>
        <mxCell id="cY8O7p1p9LEQL0qUz4Aw-23" value="actor" style="rounded=0;whiteSpace=wrap;html=1;" vertex="1" parent="1">
          <mxGeometry x="120" y="270" width="280" height="60" as="geometry" />
        </mxCell>
        <mxCell id="cY8O7p1p9LEQL0qUz4Aw-26" value="api들.." style="text;html=1;align=center;verticalAlign=middle;whiteSpace=wrap;rounded=0;" vertex="1" parent="1">
          <mxGeometry x="560" y="325" width="60" height="30" as="geometry" />
        </mxCell>
        <mxCell id="cY8O7p1p9LEQL0qUz4Aw-27" value="" style="rounded=0;whiteSpace=wrap;html=1;" vertex="1" parent="1">
          <mxGeometry x="729" y="650" width="380" height="425" as="geometry" />
        </mxCell>
        <mxCell id="cY8O7p1p9LEQL0qUz4Aw-28" value="" style="rounded=0;whiteSpace=wrap;html=1;" vertex="1" parent="1">
          <mxGeometry x="64" y="655" width="380" height="425" as="geometry" />
        </mxCell>
        <mxCell id="cY8O7p1p9LEQL0qUz4Aw-29" value="" style="rounded=0;whiteSpace=wrap;html=1;" vertex="1" parent="1">
          <mxGeometry x="469" y="650" width="240" height="350" as="geometry" />
        </mxCell>
        <mxCell id="cY8O7p1p9LEQL0qUz4Aw-30" value="Router Handler-app/api" style="text;html=1;align=center;verticalAlign=middle;whiteSpace=wrap;rounded=0;" vertex="1" parent="1">
          <mxGeometry x="524" y="660" width="130" height="30" as="geometry" />
        </mxCell>
        <mxCell id="cY8O7p1p9LEQL0qUz4Aw-31" value="FE-app -&amp;gt; 컴포넌트만" style="text;html=1;align=center;verticalAlign=middle;whiteSpace=wrap;rounded=0;" vertex="1" parent="1">
          <mxGeometry x="189" y="660" width="130" height="30" as="geometry" />
        </mxCell>
        <mxCell id="cY8O7p1p9LEQL0qUz4Aw-32" value="BE-core" style="text;html=1;align=center;verticalAlign=middle;whiteSpace=wrap;rounded=0;" vertex="1" parent="1">
          <mxGeometry x="854" y="660" width="130" height="30" as="geometry" />
        </mxCell>
        <mxCell id="cY8O7p1p9LEQL0qUz4Aw-33" value="component" style="rounded=0;whiteSpace=wrap;html=1;" vertex="1" parent="1">
          <mxGeometry x="119" y="700" width="280" height="60" as="geometry" />
        </mxCell>
        <mxCell id="cY8O7p1p9LEQL0qUz4Aw-37" value="repository" style="rounded=0;whiteSpace=wrap;html=1;" vertex="1" parent="1">
          <mxGeometry x="784" y="801" width="280" height="60" as="geometry" />
        </mxCell>
        <mxCell id="cY8O7p1p9LEQL0qUz4Aw-38" value="interface -&amp;gt; app 에서 같이 사용" style="rounded=0;whiteSpace=wrap;html=1;" vertex="1" parent="1">
          <mxGeometry x="784" y="881" width="280" height="60" as="geometry" />
        </mxCell>
        <mxCell id="cY8O7p1p9LEQL0qUz4Aw-39" value="service&amp;nbsp;&lt;div&gt;-&amp;gt; front에서 쓸 형식으로 완전 만들어서 보내주기&lt;/div&gt;" style="rounded=0;whiteSpace=wrap;html=1;" vertex="1" parent="1">
          <mxGeometry x="784" y="721" width="280" height="60" as="geometry" />
        </mxCell>
        <mxCell id="cY8O7p1p9LEQL0qUz4Aw-40" value="controller" style="rounded=0;whiteSpace=wrap;html=1;" vertex="1" parent="1">
          <mxGeometry x="494" y="721" width="200" height="60" as="geometry" />
        </mxCell>
        <mxCell id="cY8O7p1p9LEQL0qUz4Aw-41" value="actor" style="rounded=0;whiteSpace=wrap;html=1;" vertex="1" parent="1">
          <mxGeometry x="119" y="770" width="280" height="60" as="geometry" />
        </mxCell>
        <mxCell id="cY8O7p1p9LEQL0qUz4Aw-42" value="api들.." style="text;html=1;align=center;verticalAlign=middle;whiteSpace=wrap;rounded=0;" vertex="1" parent="1">
          <mxGeometry x="559" y="825" width="60" height="30" as="geometry" />
        </mxCell>
        <mxCell id="cY8O7p1p9LEQL0qUz4Aw-43" value="error.js -&amp;gt; 모든 error 관리" style="rounded=0;whiteSpace=wrap;html=1;" vertex="1" parent="1">
          <mxGeometry x="134" y="961" width="200" height="60" as="geometry" />
        </mxCell>
        <mxCell id="cY8O7p1p9LEQL0qUz4Aw-44" value="DTO&lt;div&gt;-&amp;gt; validation&lt;/div&gt;" style="rounded=0;whiteSpace=wrap;html=1;" vertex="1" parent="1">
          <mxGeometry x="784" y="962" width="280" height="60" as="geometry" />
        </mxCell>
      </root>
    </mxGraphModel>
  </diagram>
</mxfile>
